<?xml version="1.0" encoding="utf-8" ?>
<svg baseProfile="full" height="20.0cm" version="1.1" width="20.0cm" xmlns="http://www.w3.org/2000/svg" xmlns:ev="http://www.w3.org/2001/xml-events" xmlns:xlink="http://www.w3.org/1999/xlink"><defs /><polygon fill="none" points="7.086614,7.086614 7.086614,118.110233333 0.0,118.110233333 0.0,236.220466667 7.086614,236.220466667 7.086614,347.244086 118.110233333,347.244086 118.110233333,354.3307 236.220466667,354.3307 236.220466667,347.244086 347.244086,347.244086 347.244086,236.220466667 354.3307,236.220466667 354.3307,118.110233333 347.244086,118.110233333 347.244086,7.086614 236.220466667,7.086614 236.220466667,0.0 118.110233333,0.0 118.110233333,7.086614" stroke="black" stroke-width="0.01cm" /><polygon fill="none" points="0.0,0.0 0.0,59.0551166667 7.086614,59.0551166667 7.086614,118.110233333 0.0,118.110233333 0.0,170.078736 118.110233333,170.078736 118.110233333,177.16535 236.220466667,177.16535 236.220466667,170.078736 354.3307,170.078736 354.3307,118.110233333 347.244086,118.110233333 347.244086,59.0551166667 354.3307,59.0551166667 354.3307,0.0 236.220466667,0.0 236.220466667,7.086614 118.110233333,7.086614 118.110233333,0.0" stroke="black" stroke-width="0.01cm" transform="rotate(-90,354.3307,0) translate(0,0.0)" /><polygon fill="none" points="0.0,0.0 0.0,59.0551166667 7.086614,59.0551166667 7.086614,118.110233333 0.0,118.110233333 0.0,170.078736 118.110233333,170.078736 118.110233333,177.16535 236.220466667,177.16535 236.220466667,170.078736 354.3307,170.078736 354.3307,118.110233333 347.244086,118.110233333 347.244086,59.0551166667 354.3307,59.0551166667 354.3307,0.0 236.220466667,0.0 236.220466667,7.086614 118.110233333,7.086614 118.110233333,0.0" stroke="black" stroke-width="0.01cm" transform="rotate(-90,354.3307,0) translate(0,177.16535)" /><polygon fill="none" points="7.086614,0.0 7.086614,59.0551166667 0.0,59.0551166667 0.0,118.110233333 7.086614,118.110233333 7.086614,170.078736 118.110233333,170.078736 118.110233333,177.16535 236.220466667,177.16535 236.220466667,170.078736 347.244086,170.078736 347.244086,118.110233333 354.3307,118.110233333 354.3307,59.0551166667 347.244086,59.0551166667 347.244086,0.0 236.220466667,0.0 236.220466667,7.086614 118.110233333,7.086614 118.110233333,0.0" stroke="black" stroke-width="0.01cm" transform="translate(0,354.3307)" /><polygon fill="none" points="7.086614,0.0 7.086614,59.0551166667 0.0,59.0551166667 0.0,118.110233333 7.086614,118.110233333 7.086614,170.078736 118.110233333,170.078736 118.110233333,177.16535 236.220466667,177.16535 236.220466667,170.078736 347.244086,170.078736 347.244086,118.110233333 354.3307,118.110233333 354.3307,59.0551166667 347.244086,59.0551166667 347.244086,0.0 236.220466667,0.0 236.220466667,7.086614 118.110233333,7.086614 118.110233333,0.0" stroke="black" stroke-width="0.01cm" transform="translate(0,531.49605)" /></svg>