<?xml version="1.0" encoding="utf-8" ?>
<svg baseProfile="full" height="31.0cm" version="1.1" width="36.0cm" xmlns="http://www.w3.org/2000/svg" xmlns:ev="http://www.w3.org/2001/xml-events" xmlns:xlink="http://www.w3.org/1999/xlink"><defs /><polygon fill="none" points="7.086614,7.086614 7.086614,177.16535 0.0,177.16535 0.0,354.3307 7.086614,354.3307 7.086614,524.409436 212.59842,524.409436 212.59842,531.49605 425.19684,531.49605 425.19684,524.409436 630.708646,524.409436 630.708646,354.3307 637.79526,354.3307 637.79526,177.16535 630.708646,177.16535 630.708646,7.086614 425.19684,7.086614 425.19684,0.0 212.59842,0.0 212.59842,7.086614" stroke="black" stroke-width="0.01cm" /><polygon fill="none" points="0.0,0.0 0.0,94.4881866667 7.086614,94.4881866667 7.086614,188.976373333 0.0,188.976373333 0.0,276.377946 177.16535,276.377946 177.16535,283.46456 354.3307,283.46456 354.3307,276.377946 531.49605,276.377946 531.49605,188.976373333 524.409436,188.976373333 524.409436,94.4881866667 531.49605,94.4881866667 531.49605,0.0 354.3307,0.0 354.3307,7.086614 177.16535,7.086614 177.16535,0.0" stroke="black" stroke-width="0.01cm" transform="rotate(-90,531.49605,0) translate(0,106.29921)" /><polygon fill="none" points="0.0,0.0 0.0,94.4881866667 7.086614,94.4881866667 7.086614,188.976373333 0.0,188.976373333 0.0,276.377946 177.16535,276.377946 177.16535,283.46456 354.3307,283.46456 354.3307,276.377946 531.49605,276.377946 531.49605,188.976373333 524.409436,188.976373333 524.409436,94.4881866667 531.49605,94.4881866667 531.49605,0.0 354.3307,0.0 354.3307,7.086614 177.16535,7.086614 177.16535,0.0" stroke="black" stroke-width="0.01cm" transform="rotate(-90,531.49605,0) translate(0,389.76377)" /><polygon fill="none" points="7.086614,0.0 7.086614,94.4881866667 0.0,94.4881866667 0.0,188.976373333 7.086614,188.976373333 7.086614,276.377946 212.59842,276.377946 212.59842,283.46456 425.19684,283.46456 425.19684,276.377946 630.708646,276.377946 630.708646,188.976373333 637.79526,188.976373333 637.79526,94.4881866667 630.708646,94.4881866667 630.708646,0.0 425.19684,0.0 425.19684,7.086614 212.59842,7.086614 212.59842,0.0" stroke="black" stroke-width="0.01cm" transform="translate(0,531.49605)" /><polygon fill="none" points="7.086614,0.0 7.086614,94.4881866667 0.0,94.4881866667 0.0,188.976373333 7.086614,188.976373333 7.086614,276.377946 212.59842,276.377946 212.59842,283.46456 425.19684,283.46456 425.19684,276.377946 630.708646,276.377946 630.708646,188.976373333 637.79526,188.976373333 637.79526,94.4881866667 630.708646,94.4881866667 630.708646,0.0 425.19684,0.0 425.19684,7.086614 212.59842,7.086614 212.59842,0.0" stroke="black" stroke-width="0.01cm" transform="translate(0,814.96061)" /></svg>